P3
# feep.ppm
4 4
15
 1  0  0    2  0  0    3  0  0   4  0 15
 0  0  0    0 15  7    0  0  0    0  0  0
 0  0  0    0  0  0    0 15  7    0  0  0
15  0 15    0  0  0    0  0  0    0  0  0

